<svg id="svg" version="1.1" xmlns="http://www.w3.org/2000/svg" xmlns:xlink="http://www.w3.org/1999/xlink" width="400" height="400" viewBox="0, 0, 400,400"><g id="svgg"><path id="path0" d="M43.814 156.302 C 43.874 156.560,45.122 164.857,46.588 174.740 L 49.254 192.708 53.123 192.708 L 56.992 192.708 58.207 189.219 C 58.875 187.299,60.344 183.014,61.471 179.696 C 62.599 176.377,63.568 173.799,63.625 173.967 C 63.682 174.134,63.872 174.786,64.047 175.417 C 64.223 176.047,65.654 180.195,67.228 184.635 L 70.090 192.708 74.107 192.708 C 77.231 192.708,78.125 192.649,78.125 192.442 C 78.125 192.295,79.344 184.069,80.833 174.161 C 82.323 164.253,83.541 156.076,83.542 155.990 C 83.542 155.904,82.099 155.833,80.336 155.833 L 77.130 155.833 77.015 156.510 C 76.951 156.883,76.186 163.422,75.313 171.042 C 74.440 178.661,73.676 185.130,73.614 185.417 C 73.477 186.052,73.958 187.282,69.443 174.737 L 65.938 164.995 63.559 165.050 L 61.180 165.104 57.631 175.729 C 55.679 181.573,54.056 186.214,54.024 186.042 C 53.992 185.870,53.166 179.354,52.188 171.563 C 51.211 163.771,50.358 157.044,50.292 156.615 L 50.172 155.833 46.938 155.833 L 43.705 155.833 43.814 156.302 M105.778 156.902 C 94.404 157.978,87.685 170.441,91.140 184.058 C 93.917 195.008,104.698 198.967,121.094 195.059 L 122.500 194.723 122.500 192.049 C 122.500 190.578,122.421 189.375,122.325 189.375 C 122.229 189.375,121.268 189.559,120.189 189.783 C 105.631 192.814,97.292 189.093,97.292 179.567 L 97.292 178.753 110.885 178.699 L 124.479 178.646 124.453 174.583 C 124.386 164.214,119.209 157.628,110.608 156.975 C 109.758 156.911,108.734 156.829,108.333 156.794 C 107.932 156.758,106.783 156.807,105.778 156.902 M110.042 162.316 C 114.411 163.234,117.203 166.762,117.632 171.905 L 117.768 173.542 107.510 173.542 L 97.253 173.542 97.401 172.448 C 97.483 171.846,97.737 170.745,97.965 170.000 C 99.784 164.078,104.413 161.132,110.042 162.316 M148.646 206.122 C 143.446 208.580,145.469 216.433,151.191 216.002 C 154.082 215.784,156.083 213.670,156.083 210.833 C 156.083 206.994,152.116 204.481,148.646 206.122 M91.875 233.021 L 91.875 260.000 95.208 260.000 L 98.542 260.000 98.542 247.308 L 98.542 234.617 99.617 233.402 C 105.413 226.854,109.836 225.078,113.540 227.811 C 116.094 229.695,116.120 229.870,116.246 246.042 L 116.354 259.896 119.688 259.896 L 123.021 259.896 123.021 246.042 C 123.021 230.692,122.984 230.189,121.643 227.295 C 117.999 219.425,107.654 218.677,100.225 225.747 L 98.438 227.449 98.498 216.745 L 98.559 206.042 95.217 206.042 L 91.875 206.042 91.875 233.021 M222.968 232.969 L 223.021 259.896 226.354 259.896 L 229.688 259.896 229.792 249.761 L 229.896 239.626 235.938 246.511 C 239.260 250.298,242.075 253.499,242.191 253.625 C 242.308 253.751,243.386 254.979,244.587 256.354 C 245.788 257.728,247.007 259.113,247.296 259.431 L 247.822 260.008 252.389 259.952 L 256.956 259.896 253.860 256.563 C 252.158 254.729,250.147 252.570,249.393 251.764 C 247.785 250.046,243.688 245.638,242.949 244.831 C 242.667 244.523,241.443 243.207,240.229 241.906 C 239.014 240.605,237.995 239.472,237.963 239.387 C 237.930 239.303,240.555 236.654,243.796 233.502 C 247.036 230.350,251.094 226.401,252.813 224.726 L 255.938 221.682 251.533 221.674 L 247.129 221.667 238.462 230.365 L 229.796 239.063 229.794 222.552 L 229.792 206.042 226.353 206.042 L 222.915 206.042 222.968 232.969 M58.906 210.286 L 55.625 211.124 55.625 216.395 L 55.625 221.667 50.208 221.667 L 44.792 221.667 44.792 224.479 L 44.792 227.292 50.197 227.292 L 55.603 227.292 55.679 239.010 C 55.744 249.014,55.804 250.890,56.089 251.827 C 57.443 256.278,60.086 258.763,64.725 259.945 C 67.447 260.638,75.648 260.416,79.010 259.558 L 79.792 259.359 79.792 256.554 C 79.792 255.012,79.736 253.750,79.668 253.750 C 79.600 253.750,78.592 253.955,77.429 254.205 C 69.961 255.812,64.526 254.354,62.897 250.306 L 62.397 249.063 62.334 238.179 L 62.271 227.296 70.979 227.242 L 79.688 227.188 79.746 224.427 L 79.804 221.667 71.051 221.667 L 62.298 221.667 62.243 215.558 L 62.188 209.449 58.906 210.286 M194.123 221.365 C 191.578 221.982,187.970 224.353,185.984 226.713 L 185.104 227.759 184.969 226.640 C 184.894 226.024,184.824 224.654,184.812 223.594 L 184.792 221.667 181.771 221.667 L 178.750 221.667 178.750 240.833 L 178.750 260.000 182.083 260.000 L 185.417 260.000 185.417 247.275 L 185.417 234.550 187.308 232.377 C 190.111 229.158,192.225 227.549,194.424 226.964 C 198.118 225.980,201.399 227.596,202.532 230.958 L 203.016 232.396 203.079 246.198 L 203.142 260.000 206.476 260.000 L 209.810 260.000 209.742 245.365 C 209.666 229.073,209.727 229.816,208.190 226.669 C 205.988 222.161,200.059 219.925,194.123 221.365 M137.083 224.375 L 137.083 227.083 142.813 227.083 L 148.542 227.083 148.542 240.729 L 148.542 254.375 142.188 254.375 L 135.833 254.375 135.833 257.188 L 135.833 260.000 151.354 260.000 L 166.875 260.000 166.875 257.188 L 166.875 254.375 161.042 254.375 L 155.208 254.375 155.208 238.021 L 155.208 221.667 146.146 221.667 L 137.083 221.667 137.083 224.375 M159.375 278.229 C 159.375 282.641,159.338 286.250,159.293 286.250 C 159.248 286.250,158.475 286.087,157.574 285.887 C 149.693 284.138,141.103 286.870,137.209 292.364 C 130.570 301.728,132.777 319.406,141.095 323.501 C 147.238 326.525,154.373 324.270,159.420 317.708 L 159.980 316.979 159.991 318.229 C 159.997 318.917,160.063 320.534,160.137 321.823 L 160.272 324.167 163.261 324.167 L 166.250 324.167 166.250 297.188 L 166.250 270.208 162.813 270.208 L 159.375 270.208 159.375 278.229 M103.854 285.503 C 94.974 287.243,89.745 294.083,89.431 304.375 C 89.032 317.420,95.429 324.792,107.148 324.792 C 120.582 324.792,128.475 312.619,124.777 297.604 C 122.577 288.672,113.748 283.565,103.854 285.503 M191.042 285.524 C 180.880 287.600,175.199 298.381,177.609 311.013 C 179.864 322.829,190.236 327.293,206.987 323.656 C 209.653 323.078,209.375 323.461,209.375 320.368 C 209.375 317.660,209.375 317.660,208.906 317.790 C 203.440 319.304,195.248 319.665,191.640 318.551 C 187.245 317.193,184.182 312.982,184.170 308.281 L 184.167 307.083 197.681 307.083 L 211.195 307.083 211.325 306.302 C 212.138 301.383,210.566 294.412,207.847 290.879 C 204.438 286.448,197.437 284.217,191.042 285.524 M63.125 285.813 C 53.734 287.896,48.628 294.888,48.658 305.625 C 48.687 315.858,52.587 321.636,60.998 323.908 C 65.021 324.995,72.358 324.698,76.942 323.263 L 78.438 322.795 78.495 319.706 C 78.541 317.264,78.497 316.641,78.287 316.730 C 74.036 318.519,72.581 318.835,68.542 318.846 C 60.599 318.867,56.447 315.224,55.586 307.482 C 54.080 293.941,64.693 287.295,78.287 293.265 C 78.497 293.358,78.541 292.720,78.495 290.201 L 78.438 287.021 77.604 286.725 C 74.110 285.488,66.697 285.021,63.125 285.813 M196.767 290.732 C 201.449 291.724,204.375 295.506,204.375 300.565 L 204.375 302.083 194.244 302.083 L 184.113 302.083 184.258 300.781 C 185.049 293.705,190.422 289.388,196.767 290.732 M110.369 291.147 C 115.426 292.340,118.347 296.730,118.684 303.646 C 119.151 313.224,114.867 319.167,107.496 319.167 C 100.519 319.167,96.590 314.594,96.307 306.145 C 95.941 295.211,101.673 289.097,110.369 291.147 M154.792 291.138 C 155.880 291.305,157.357 291.641,158.073 291.886 L 159.375 292.330 159.375 301.342 L 159.375 310.355 158.291 311.786 C 149.196 323.801,140.401 320.834,140.333 305.729 C 140.283 294.525,145.106 289.657,154.792 291.138 M216.042 336.979 L 216.042 339.792 237.708 339.792 L 259.375 339.792 259.375 336.979 L 259.375 334.167 237.708 334.167 L 216.042 334.167 216.042 336.979 " stroke="none" fill="#fafbfb" fill-rule="evenodd"></path><path id="path1" d="M67.212 18.055 C 66.578 18.819,66.117 19.537,66.187 19.650 C 66.257 19.763,66.216 19.795,66.097 19.721 C 65.879 19.587,65.074 20.590,65.162 20.885 C 65.187 20.971,65.127 21.018,65.028 20.990 C 64.775 20.917,58.121 28.992,58.255 29.209 C 58.315 29.306,58.277 29.360,58.170 29.328 C 57.908 29.251,50.200 38.567,50.338 38.792 C 50.399 38.889,50.360 38.943,50.253 38.911 C 49.992 38.835,42.283 48.151,42.422 48.375 C 42.482 48.473,42.443 48.526,42.335 48.495 C 42.052 48.412,35.413 56.492,35.563 56.736 C 35.633 56.848,35.588 56.877,35.465 56.801 C 35.201 56.637,34.317 57.789,34.537 58.010 C 34.620 58.092,34.583 58.128,34.455 58.090 C 34.148 57.999,27.483 66.055,27.647 66.319 C 27.716 66.431,27.675 66.462,27.555 66.388 C 27.338 66.254,26.533 67.256,26.620 67.552 C 26.646 67.638,26.585 67.685,26.486 67.656 C 26.233 67.583,19.579 75.659,19.713 75.875 C 19.773 75.972,19.735 76.026,19.628 75.995 C 19.367 75.918,11.658 85.234,11.797 85.459 C 11.857 85.556,11.818 85.610,11.710 85.578 C 11.603 85.547,9.957 87.396,8.055 89.688 L 4.595 93.854 4.589 238.594 L 4.583 383.333 200.000 383.333 L 395.417 383.333 395.417 200.000 L 395.417 16.667 231.891 16.667 L 68.365 16.667 67.212 18.055 M51.007 161.302 C 53.219 179.018,54.100 185.692,54.203 185.513 C 54.267 185.403,55.839 180.742,57.698 175.156 L 61.076 165.000 63.537 165.000 C 65.686 165.000,66.015 165.046,66.141 165.365 C 66.442 166.131,72.886 183.900,73.178 184.771 L 73.486 185.688 73.619 184.563 C 74.910 173.618,76.875 156.511,76.875 156.218 C 76.875 155.859,77.109 155.833,80.316 155.833 L 83.758 155.833 83.649 156.302 C 83.590 156.560,82.368 164.646,80.935 174.271 C 79.501 183.896,78.280 191.984,78.222 192.244 L 78.115 192.717 74.016 192.661 L 69.918 192.604 68.688 189.167 C 65.748 180.948,65.117 179.143,64.427 176.979 C 63.494 174.054,63.454 174.025,62.915 175.860 C 62.667 176.705,62.052 178.568,61.549 180.000 C 61.046 181.432,60.114 184.104,59.479 185.938 C 58.843 187.771,58.057 190.021,57.732 190.938 L 57.140 192.604 53.171 192.661 L 49.202 192.717 49.082 192.140 C 48.967 191.590,44.480 161.638,44.251 159.896 C 44.191 159.438,44.053 158.553,43.946 157.930 C 43.838 157.308,43.750 156.581,43.750 156.316 L 43.750 155.833 47.037 155.833 L 50.324 155.833 51.007 161.302 M111.553 156.983 C 120.534 158.549,125.538 166.128,124.688 176.875 L 124.539 178.750 110.925 178.750 L 97.311 178.750 97.422 179.844 C 98.413 189.678,105.956 192.834,120.675 189.570 C 121.676 189.348,122.543 189.167,122.602 189.167 C 122.660 189.167,122.708 190.428,122.708 191.969 L 122.708 194.772 121.927 194.997 C 117.015 196.409,106.686 196.878,102.813 195.863 C 94.290 193.630,90.215 187.485,90.210 176.860 C 90.203 163.356,99.334 154.852,111.553 156.983 M105.833 162.318 C 101.608 163.003,97.500 168.209,97.500 172.878 L 97.500 173.542 107.500 173.542 L 117.500 173.542 117.500 172.225 C 117.500 167.034,114.071 162.985,109.100 162.306 C 107.295 162.059,107.430 162.059,105.833 162.318 M153.229 206.026 C 155.840 207.172,156.985 210.667,155.625 213.334 C 153.397 217.700,146.620 216.772,145.622 211.964 C 144.708 207.562,149.036 204.184,153.229 206.026 M98.709 216.615 L 98.619 227.188 100.304 225.521 C 107.645 218.257,119.187 219.616,122.108 228.089 C 123.064 230.865,123.125 231.958,123.125 246.381 L 123.125 260.000 119.697 260.000 L 116.269 260.000 116.208 246.302 L 116.146 232.604 115.661 231.261 C 114.512 228.078,113.012 226.979,109.815 226.979 C 106.341 226.979,103.831 228.627,99.528 233.735 L 98.750 234.658 98.750 247.329 L 98.750 260.000 95.313 260.000 L 91.875 260.000 91.875 233.021 L 91.875 206.042 95.336 206.042 L 98.798 206.042 98.709 216.615 M229.792 222.447 L 229.792 238.852 238.491 230.155 L 247.189 221.458 251.616 221.458 C 254.050 221.458,256.042 221.541,256.042 221.641 C 256.042 221.741,255.278 222.562,254.344 223.464 C 253.410 224.366,251.699 226.026,250.542 227.153 C 242.659 234.828,238.267 239.077,238.122 239.168 C 238.029 239.226,238.437 239.794,239.029 240.430 C 239.620 241.066,241.182 242.743,242.500 244.155 C 243.818 245.568,245.036 246.886,245.208 247.083 C 245.380 247.280,246.515 248.509,247.731 249.814 C 248.946 251.120,250.171 252.439,250.451 252.747 C 250.732 253.055,251.949 254.368,253.156 255.664 C 254.364 256.960,255.738 258.443,256.210 258.958 L 257.069 259.896 252.342 259.952 L 247.615 260.008 246.975 259.310 C 246.623 258.925,246.120 258.338,245.858 258.003 C 245.596 257.669,244.748 256.693,243.973 255.833 C 243.199 254.974,241.499 253.052,240.196 251.563 C 238.894 250.073,237.682 248.714,237.504 248.542 C 237.325 248.370,236.384 247.293,235.413 246.148 C 234.441 245.003,233.456 243.878,233.224 243.648 C 232.992 243.418,232.205 242.526,231.475 241.667 C 230.746 240.807,230.069 240.073,229.970 240.035 C 229.872 239.997,229.792 244.473,229.792 249.983 L 229.792 260.000 226.354 260.000 L 222.917 260.000 222.917 233.021 L 222.917 206.042 226.354 206.042 L 229.792 206.042 229.792 222.447 M62.500 215.417 L 62.500 221.458 71.146 221.458 L 79.792 221.458 79.792 224.375 L 79.792 227.292 71.146 227.292 L 62.500 227.292 62.502 237.865 C 62.505 250.653,62.592 251.158,65.120 253.093 C 67.632 255.016,74.151 255.259,79.427 253.626 C 79.763 253.523,79.792 253.753,79.792 256.519 L 79.792 259.524 78.073 259.870 C 69.482 261.602,61.489 260.211,58.244 256.419 C 55.778 253.538,55.582 252.283,55.474 238.698 L 55.383 227.292 49.977 227.292 L 44.572 227.292 44.630 224.427 L 44.688 221.563 50.052 221.507 L 55.417 221.451 55.417 216.250 L 55.417 211.050 55.990 210.907 C 56.305 210.828,57.688 210.464,59.063 210.097 C 60.438 209.730,61.773 209.417,62.031 209.402 L 62.500 209.375 62.500 215.417 M201.875 221.370 C 205.021 222.313,207.038 223.990,208.362 226.766 C 209.870 229.927,209.849 229.675,209.941 245.677 L 210.024 260.000 206.574 260.000 L 203.125 260.000 203.119 247.552 C 203.111 232.242,202.968 230.855,201.195 228.841 C 199.837 227.298,199.025 226.979,196.458 226.979 C 193.096 226.979,190.784 228.448,186.782 233.123 L 185.625 234.476 185.625 247.238 L 185.625 260.000 182.082 260.000 L 178.539 260.000 178.593 240.781 L 178.646 221.563 181.688 221.505 L 184.730 221.448 184.864 222.859 C 184.937 223.636,184.998 225.010,184.999 225.913 L 185.000 227.555 186.476 226.067 C 189.003 223.520,191.864 221.738,194.167 221.276 C 194.797 221.149,195.500 221.002,195.729 220.949 C 196.580 220.751,200.767 221.038,201.875 221.370 M155.417 237.917 L 155.417 254.375 161.146 254.375 L 166.875 254.375 166.875 257.188 L 166.875 260.000 151.250 260.000 L 135.625 260.000 135.625 257.188 L 135.625 254.375 141.979 254.375 L 148.333 254.375 148.333 240.833 L 148.333 227.292 142.604 227.292 L 136.875 227.292 136.875 224.514 C 136.875 222.986,136.938 221.674,137.014 221.597 C 137.090 221.521,141.262 221.458,146.285 221.458 L 155.417 221.458 155.417 237.917 M166.250 297.188 L 166.250 324.167 163.125 324.167 L 160.000 324.167 159.997 321.094 C 159.993 317.363,159.914 317.179,158.889 318.523 C 157.011 320.985,154.574 322.855,151.669 324.062 C 150.764 324.438,149.991 324.713,149.952 324.674 C 149.912 324.634,149.227 324.695,148.430 324.809 C 139.520 326.078,133.756 319.271,133.395 307.054 C 132.935 291.523,142.980 282.678,157.552 285.781 L 159.375 286.169 159.375 278.189 L 159.375 270.208 162.813 270.208 L 166.250 270.208 166.250 297.188 M112.478 285.516 C 121.085 287.327,125.621 293.914,125.624 304.608 C 125.626 313.027,122.810 318.857,117.059 322.338 C 112.771 324.933,105.199 325.730,100.781 324.050 C 100.352 323.887,100.000 323.801,100.000 323.859 C 100.000 324.263,95.751 321.691,94.583 320.580 C 88.354 314.653,87.318 300.767,92.514 292.851 C 96.584 286.653,104.337 283.804,112.478 285.516 M199.220 285.532 C 207.342 287.240,211.576 293.536,211.411 303.658 L 211.354 307.188 197.760 307.241 L 184.167 307.295 184.168 307.762 C 184.169 308.193,184.391 309.629,184.692 311.146 C 186.118 318.339,194.571 320.844,207.615 317.937 L 209.375 317.545 209.375 320.412 L 209.375 323.279 207.240 323.720 C 187.058 327.886,177.186 321.839,177.188 305.313 C 177.189 291.103,186.399 282.835,199.220 285.532 M74.640 285.832 C 75.759 286.068,77.119 286.434,77.660 286.647 L 78.646 287.034 78.703 290.288 C 78.761 293.563,78.666 293.982,78.010 293.352 C 76.114 291.530,67.508 290.513,64.178 291.717 C 60.699 292.976,57.184 296.538,56.624 299.375 C 56.590 299.547,56.500 299.735,56.423 299.794 C 55.606 300.415,55.420 307.649,56.151 310.313 C 58.460 318.715,67.232 321.154,78.490 316.521 C 78.691 316.438,78.750 317.127,78.750 319.572 L 78.750 322.730 77.969 323.056 C 73.806 324.797,65.838 325.263,61.090 324.044 C 52.609 321.866,48.462 315.825,48.446 305.625 C 48.423 290.894,59.370 282.622,74.640 285.832 M191.408 291.050 C 189.057 291.860,187.153 293.532,185.967 295.832 C 185.309 297.107,184.553 299.197,184.622 299.549 C 184.637 299.625,184.596 299.828,184.530 300.000 C 184.464 300.172,184.362 300.664,184.302 301.094 L 184.193 301.875 194.284 301.875 L 204.375 301.875 204.375 300.929 C 204.375 293.791,197.862 288.830,191.408 291.050 M105.709 291.041 C 102.027 291.581,98.016 294.969,97.433 298.032 C 97.390 298.255,97.259 298.672,97.140 298.958 C 95.705 302.437,96.151 309.654,98.039 313.503 C 101.935 321.447,114.002 320.845,117.275 312.543 C 120.502 304.356,117.499 292.964,111.771 291.664 C 111.656 291.638,111.332 291.529,111.051 291.422 C 109.832 290.959,107.436 290.788,105.709 291.041 M148.333 291.470 C 142.742 293.014,140.531 297.024,140.527 305.625 C 140.525 312.888,141.796 316.445,145.038 318.240 C 148.683 320.260,153.069 318.163,157.918 312.081 L 159.375 310.255 159.375 301.400 L 159.375 292.545 158.553 292.216 C 158.100 292.035,157.514 291.843,157.250 291.789 C 156.987 291.735,156.443 291.585,156.042 291.455 C 154.579 290.983,150.064 290.992,148.333 291.470 M259.583 336.979 L 259.583 339.792 237.708 339.792 L 215.833 339.792 215.833 336.979 L 215.833 334.167 237.708 334.167 L 259.583 334.167 259.583 336.979 " stroke="none" fill="#4c84c4" fill-rule="evenodd"></path><path id="path2" d="M124.636 173.854 C 124.638 174.313,124.681 174.475,124.731 174.216 C 124.781 173.957,124.779 173.582,124.726 173.383 C 124.674 173.184,124.634 173.396,124.636 173.854 M124.643 175.729 C 124.644 176.302,124.685 176.512,124.733 176.195 C 124.781 175.878,124.779 175.410,124.730 175.153 C 124.681 174.897,124.641 175.156,124.643 175.729 M122.565 190.313 C 122.566 191.000,122.605 191.256,122.651 190.882 C 122.697 190.507,122.696 189.945,122.649 189.632 C 122.601 189.319,122.563 189.625,122.565 190.313 M122.565 192.813 C 122.566 193.500,122.605 193.756,122.651 193.382 C 122.697 193.007,122.696 192.445,122.649 192.132 C 122.601 191.819,122.563 192.125,122.565 192.813 M62.358 210.625 C 62.358 211.370,62.396 211.674,62.442 211.302 C 62.489 210.930,62.489 210.320,62.442 209.948 C 62.396 209.576,62.358 209.880,62.358 210.625 M145.465 210.833 C 145.465 211.234,145.508 211.398,145.560 211.198 C 145.613 210.997,145.613 210.669,145.560 210.469 C 145.508 210.268,145.465 210.432,145.465 210.833 M55.485 212.396 C 55.486 213.198,55.524 213.501,55.569 213.068 C 55.614 212.636,55.613 211.980,55.567 211.610 C 55.521 211.240,55.484 211.594,55.485 212.396 M62.351 213.021 C 62.353 213.594,62.393 213.803,62.441 213.487 C 62.489 213.170,62.488 212.701,62.438 212.445 C 62.389 212.189,62.350 212.448,62.351 213.021 M55.476 214.896 C 55.478 215.469,55.518 215.678,55.566 215.362 C 55.614 215.045,55.613 214.576,55.563 214.320 C 55.514 214.064,55.475 214.323,55.476 214.896 M62.351 215.104 C 62.353 215.677,62.393 215.887,62.441 215.570 C 62.489 215.253,62.488 214.785,62.438 214.528 C 62.389 214.272,62.350 214.531,62.351 215.104 M55.481 217.188 C 55.482 217.875,55.521 218.131,55.568 217.757 C 55.614 217.382,55.613 216.820,55.566 216.507 C 55.518 216.194,55.480 216.500,55.481 217.188 M62.356 217.396 C 62.357 218.083,62.396 218.339,62.443 217.965 C 62.489 217.591,62.488 217.028,62.441 216.715 C 62.393 216.402,62.355 216.708,62.356 217.396 M55.476 219.479 C 55.478 220.052,55.518 220.262,55.566 219.945 C 55.614 219.628,55.613 219.160,55.563 218.903 C 55.514 218.647,55.475 218.906,55.476 219.479 M62.351 219.688 C 62.353 220.260,62.393 220.470,62.441 220.153 C 62.489 219.837,62.488 219.368,62.438 219.112 C 62.389 218.855,62.350 219.115,62.351 219.688 M62.316 221.198 L 62.292 221.667 70.990 221.617 L 79.688 221.567 71.109 221.510 C 63.162 221.458,62.523 221.427,62.435 221.091 C 62.364 220.822,62.334 220.849,62.316 221.198 M44.665 221.753 C 44.603 221.915,44.592 222.314,44.641 222.639 C 44.716 223.138,44.734 223.109,44.760 222.451 L 44.792 221.674 50.052 221.614 L 55.313 221.555 50.046 221.507 C 45.664 221.466,44.760 221.508,44.665 221.753 M136.957 221.753 C 136.895 221.915,136.884 222.314,136.932 222.639 C 137.007 223.137,137.026 223.107,137.052 222.450 L 137.083 221.671 146.198 221.615 L 155.313 221.558 146.191 221.508 C 138.485 221.466,137.053 221.504,136.957 221.753 M178.624 221.753 C 178.562 221.915,178.550 222.314,178.599 222.639 C 178.674 223.139,178.692 223.111,178.719 222.454 L 178.750 221.678 181.719 221.614 L 184.688 221.550 181.712 221.504 C 179.308 221.467,178.715 221.515,178.624 221.753 M251.435 221.614 L 255.890 221.675 255.497 222.140 L 255.104 222.604 255.568 222.212 C 256.370 221.533,255.922 221.457,251.394 221.506 L 246.979 221.554 251.435 221.614 M44.643 224.271 C 44.644 224.844,44.685 225.053,44.733 224.737 C 44.781 224.420,44.779 223.951,44.730 223.695 C 44.681 223.439,44.641 223.698,44.643 224.271 M136.935 224.271 C 136.936 224.844,136.977 225.053,137.024 224.737 C 137.072 224.420,137.071 223.951,137.022 223.695 C 136.972 223.439,136.933 223.698,136.935 224.271 M178.601 224.271 C 178.603 224.844,178.643 225.053,178.691 224.737 C 178.739 224.420,178.738 223.951,178.688 223.695 C 178.639 223.439,178.600 223.698,178.601 224.271 M184.840 223.958 C 184.840 224.359,184.883 224.523,184.935 224.323 C 184.988 224.122,184.988 223.794,184.935 223.594 C 184.883 223.393,184.840 223.557,184.840 223.958 M44.640 226.250 C 44.640 226.766,44.681 226.977,44.730 226.719 C 44.780 226.461,44.780 226.039,44.730 225.781 C 44.681 225.523,44.640 225.734,44.640 226.250 M136.932 226.250 C 136.932 226.766,136.972 226.977,137.022 226.719 C 137.072 226.461,137.072 226.039,137.022 225.781 C 136.972 225.523,136.932 225.734,136.932 226.250 M178.604 226.458 C 178.604 227.089,178.643 227.346,178.691 227.031 C 178.739 226.716,178.739 226.201,178.691 225.885 C 178.643 225.570,178.604 225.828,178.604 226.458 M109.534 226.814 C 109.793 226.864,110.168 226.862,110.367 226.810 C 110.566 226.758,110.354 226.717,109.896 226.719 C 109.438 226.722,109.275 226.764,109.534 226.814 M195.992 226.814 C 196.251 226.864,196.626 226.862,196.825 226.810 C 197.025 226.758,196.813 226.717,196.354 226.719 C 195.896 226.722,195.733 226.764,195.992 226.814 M55.476 228.229 C 55.478 228.802,55.518 229.012,55.566 228.695 C 55.614 228.378,55.613 227.910,55.563 227.653 C 55.514 227.397,55.475 227.656,55.476 228.229 M62.354 228.333 C 62.354 228.964,62.393 229.221,62.441 228.906 C 62.489 228.591,62.489 228.076,62.441 227.760 C 62.393 227.445,62.354 227.703,62.354 228.333 M148.393 228.229 C 148.394 228.802,148.435 229.012,148.483 228.695 C 148.531 228.378,148.529 227.910,148.480 227.653 C 148.431 227.397,148.391 227.656,148.393 228.229 M178.601 228.646 C 178.603 229.219,178.643 229.428,178.691 229.112 C 178.739 228.795,178.738 228.326,178.688 228.070 C 178.639 227.814,178.600 228.073,178.601 228.646 M55.481 230.521 C 55.482 231.208,55.521 231.464,55.568 231.090 C 55.614 230.716,55.613 230.153,55.566 229.840 C 55.518 229.527,55.480 229.833,55.481 230.521 M148.398 230.521 C 148.399 231.208,148.438 231.464,148.484 231.090 C 148.531 230.716,148.530 230.153,148.482 229.840 C 148.435 229.527,148.397 229.833,148.398 230.521 M62.356 230.729 C 62.357 231.417,62.396 231.673,62.443 231.298 C 62.489 230.924,62.488 230.361,62.441 230.048 C 62.393 229.735,62.355 230.042,62.356 230.729 M178.606 230.938 C 178.607 231.625,178.646 231.881,178.693 231.507 C 178.739 231.132,178.738 230.570,178.691 230.257 C 178.643 229.944,178.605 230.250,178.606 230.938 M55.481 233.021 C 55.482 233.708,55.521 233.964,55.568 233.590 C 55.614 233.216,55.613 232.653,55.566 232.340 C 55.518 232.027,55.480 232.333,55.481 233.021 M148.398 233.021 C 148.399 233.708,148.438 233.964,148.484 233.590 C 148.531 233.216,148.530 232.653,148.482 232.340 C 148.435 232.027,148.397 232.333,148.398 233.021 M62.356 233.229 C 62.357 233.917,62.396 234.173,62.443 233.798 C 62.489 233.424,62.488 232.861,62.441 232.548 C 62.393 232.235,62.355 232.542,62.356 233.229 M178.606 233.438 C 178.607 234.125,178.646 234.381,178.693 234.007 C 178.739 233.632,178.738 233.070,178.691 232.757 C 178.643 232.444,178.605 232.750,178.606 233.438 M209.840 233.750 C 209.840 234.151,209.883 234.315,209.935 234.115 C 209.988 233.914,209.988 233.586,209.935 233.385 C 209.883 233.185,209.840 233.349,209.840 233.750 M55.481 235.521 C 55.482 236.208,55.521 236.464,55.568 236.090 C 55.614 235.716,55.613 235.153,55.566 234.840 C 55.518 234.527,55.480 234.833,55.481 235.521 M148.398 235.521 C 148.399 236.208,148.438 236.464,148.484 236.090 C 148.531 235.716,148.530 235.153,148.482 234.840 C 148.435 234.527,148.397 234.833,148.398 235.521 M62.356 235.729 C 62.357 236.417,62.396 236.673,62.443 236.298 C 62.489 235.924,62.488 235.361,62.441 235.048 C 62.393 234.735,62.355 235.042,62.356 235.729 M185.481 235.729 C 185.482 236.417,185.521 236.673,185.568 236.298 C 185.614 235.924,185.613 235.361,185.566 235.048 C 185.518 234.735,185.480 235.042,185.481 235.729 M178.606 235.938 C 178.607 236.625,178.646 236.881,178.693 236.507 C 178.739 236.132,178.738 235.570,178.691 235.257 C 178.643 234.944,178.605 235.250,178.606 235.938 M55.481 238.021 C 55.482 238.708,55.521 238.964,55.568 238.590 C 55.614 238.216,55.613 237.653,55.566 237.340 C 55.518 237.027,55.480 237.333,55.481 238.021 M148.398 238.021 C 148.399 238.708,148.438 238.964,148.484 238.590 C 148.531 238.216,148.530 237.653,148.482 237.340 C 148.435 237.027,148.397 237.333,148.398 238.021 M62.356 238.229 C 62.357 238.917,62.396 239.173,62.443 238.798 C 62.489 238.424,62.488 237.861,62.441 237.548 C 62.393 237.235,62.355 237.542,62.356 238.229 M185.481 238.229 C 185.482 238.917,185.521 239.173,185.568 238.798 C 185.614 238.424,185.613 237.861,185.566 237.548 C 185.518 237.235,185.480 237.542,185.481 238.229 M178.606 238.438 C 178.607 239.125,178.646 239.381,178.693 239.007 C 178.739 238.632,178.738 238.070,178.691 237.757 C 178.643 237.444,178.605 237.750,178.606 238.438 M55.481 240.521 C 55.482 241.208,55.521 241.464,55.568 241.090 C 55.614 240.716,55.613 240.153,55.566 239.840 C 55.518 239.527,55.480 239.833,55.481 240.521 M148.398 240.521 C 148.399 241.208,148.438 241.464,148.484 241.090 C 148.531 240.716,148.530 240.153,148.482 239.840 C 148.435 239.527,148.397 239.833,148.398 240.521 M62.356 240.729 C 62.357 241.417,62.396 241.673,62.443 241.298 C 62.489 240.924,62.488 240.361,62.441 240.048 C 62.393 239.735,62.355 240.042,62.356 240.729 M185.481 240.729 C 185.482 241.417,185.521 241.673,185.568 241.298 C 185.614 240.924,185.613 240.361,185.566 240.048 C 185.518 239.735,185.480 240.042,185.481 240.729 M178.606 240.938 C 178.607 241.625,178.646 241.881,178.693 241.507 C 178.739 241.132,178.738 240.570,178.691 240.257 C 178.643 239.944,178.605 240.250,178.606 240.938 M55.481 243.021 C 55.482 243.708,55.521 243.964,55.568 243.590 C 55.614 243.216,55.613 242.653,55.566 242.340 C 55.518 242.027,55.480 242.333,55.481 243.021 M148.398 243.021 C 148.399 243.708,148.438 243.964,148.484 243.590 C 148.531 243.216,148.530 242.653,148.482 242.340 C 148.435 242.027,148.397 242.333,148.398 243.021 M62.356 243.229 C 62.357 243.917,62.396 244.173,62.443 243.798 C 62.489 243.424,62.488 242.861,62.441 242.548 C 62.393 242.235,62.355 242.542,62.356 243.229 M185.481 243.229 C 185.482 243.917,185.521 244.173,185.568 243.798 C 185.614 243.424,185.613 242.861,185.566 242.548 C 185.518 242.235,185.480 242.542,185.481 243.229 M178.606 243.438 C 178.607 244.125,178.646 244.381,178.693 244.007 C 178.739 243.632,178.738 243.070,178.691 242.757 C 178.643 242.444,178.605 242.750,178.606 243.438 M55.481 245.521 C 55.482 246.208,55.521 246.464,55.568 246.090 C 55.614 245.716,55.613 245.153,55.566 244.840 C 55.518 244.527,55.480 244.833,55.481 245.521 M148.398 245.521 C 148.399 246.208,148.438 246.464,148.484 246.090 C 148.531 245.716,148.530 245.153,148.482 244.840 C 148.435 244.527,148.397 244.833,148.398 245.521 M62.356 245.729 C 62.357 246.417,62.396 246.673,62.443 246.298 C 62.489 245.924,62.488 245.361,62.441 245.048 C 62.393 244.735,62.355 245.042,62.356 245.729 M185.481 245.729 C 185.482 246.417,185.521 246.673,185.568 246.298 C 185.614 245.924,185.613 245.361,185.566 245.048 C 185.518 244.735,185.480 245.042,185.481 245.729 M178.606 245.938 C 178.607 246.625,178.646 246.881,178.693 246.507 C 178.739 246.132,178.738 245.570,178.691 245.257 C 178.643 244.944,178.605 245.250,178.606 245.938 M148.398 248.021 C 148.399 248.708,148.438 248.964,148.484 248.590 C 148.531 248.216,148.530 247.653,148.482 247.340 C 148.435 247.027,148.397 247.333,148.398 248.021 M185.481 248.229 C 185.482 248.917,185.521 249.173,185.568 248.798 C 185.614 248.424,185.613 247.861,185.566 247.548 C 185.518 247.235,185.480 247.542,185.481 248.229 M178.606 248.438 C 178.607 249.125,178.646 249.381,178.693 249.007 C 178.739 248.632,178.738 248.070,178.691 247.757 C 178.643 247.444,178.605 247.750,178.606 248.438 M148.398 250.521 C 148.399 251.208,148.438 251.464,148.484 251.090 C 148.531 250.716,148.530 250.153,148.482 249.840 C 148.435 249.527,148.397 249.833,148.398 250.521 M185.481 250.729 C 185.482 251.417,185.521 251.673,185.568 251.298 C 185.614 250.924,185.613 250.361,185.566 250.048 C 185.518 249.735,185.480 250.042,185.481 250.729 M178.606 250.938 C 178.607 251.625,178.646 251.881,178.693 251.507 C 178.739 251.132,178.738 250.570,178.691 250.257 C 178.643 249.944,178.605 250.250,178.606 250.938 M148.398 253.021 C 148.399 253.708,148.438 253.964,148.484 253.590 C 148.531 253.216,148.530 252.653,148.482 252.340 C 148.435 252.027,148.397 252.333,148.398 253.021 M185.481 253.229 C 185.482 253.917,185.521 254.173,185.568 253.798 C 185.614 253.424,185.613 252.861,185.566 252.548 C 185.518 252.235,185.480 252.542,185.481 253.229 M178.606 253.438 C 178.607 254.125,178.646 254.381,178.693 254.007 C 178.739 253.632,178.738 253.070,178.691 252.757 C 178.643 252.444,178.605 252.750,178.606 253.438 M135.685 255.313 C 135.686 255.885,135.727 256.095,135.774 255.778 C 135.822 255.462,135.821 254.993,135.772 254.737 C 135.722 254.480,135.683 254.740,135.685 255.313 M185.481 255.729 C 185.482 256.417,185.521 256.673,185.568 256.298 C 185.614 255.924,185.613 255.361,185.566 255.048 C 185.518 254.735,185.480 255.042,185.481 255.729 M178.606 255.938 C 178.607 256.625,178.646 256.881,178.693 256.507 C 178.739 256.132,178.738 255.570,178.691 255.257 C 178.643 254.944,178.605 255.250,178.606 255.938 M135.685 257.396 C 135.686 257.969,135.727 258.178,135.774 257.862 C 135.822 257.545,135.821 257.076,135.772 256.820 C 135.722 256.564,135.683 256.823,135.685 257.396 M185.481 258.229 C 185.482 258.917,185.521 259.173,185.568 258.798 C 185.614 258.424,185.613 257.861,185.566 257.548 C 185.518 257.235,185.480 257.542,185.481 258.229 M178.606 258.438 C 178.607 259.125,178.646 259.381,178.693 259.007 C 178.739 258.632,178.738 258.070,178.691 257.757 C 178.643 257.444,178.605 257.750,178.606 258.438 M135.673 259.167 C 135.673 259.568,135.716 259.732,135.769 259.531 C 135.821 259.331,135.821 259.003,135.769 258.802 C 135.716 258.602,135.673 258.766,135.673 259.167 M69.433 260.570 C 69.981 260.613,70.825 260.613,71.308 260.569 C 71.792 260.525,71.344 260.490,70.313 260.491 C 69.281 260.491,68.886 260.527,69.433 260.570 M107.027 285.150 C 107.396 285.196,108.053 285.197,108.485 285.152 C 108.917 285.107,108.615 285.069,107.813 285.068 C 107.010 285.067,106.657 285.104,107.027 285.150 M194.115 285.151 C 194.487 285.197,195.096 285.197,195.469 285.151 C 195.841 285.104,195.536 285.067,194.792 285.067 C 194.047 285.067,193.742 285.104,194.115 285.151 M151.719 285.358 C 152.034 285.405,152.549 285.405,152.865 285.358 C 153.180 285.310,152.922 285.271,152.292 285.271 C 151.661 285.271,151.404 285.310,151.719 285.358 M78.531 287.766 C 78.633 288.624,78.637 288.629,78.708 287.942 C 78.748 287.555,78.701 287.159,78.604 287.062 C 78.507 286.965,78.474 287.282,78.531 287.766 M78.601 289.688 C 78.603 290.260,78.643 290.470,78.691 290.153 C 78.739 289.837,78.738 289.368,78.688 289.112 C 78.639 288.855,78.600 289.115,78.601 289.688 M78.601 291.771 C 78.603 292.344,78.643 292.553,78.691 292.237 C 78.739 291.920,78.738 291.451,78.688 291.195 C 78.639 290.939,78.600 291.198,78.601 291.771 M118.590 303.750 C 118.590 304.151,118.633 304.315,118.685 304.115 C 118.738 303.914,118.738 303.586,118.685 303.385 C 118.633 303.185,118.590 303.349,118.590 303.750 M140.268 305.104 C 140.269 305.677,140.310 305.887,140.358 305.570 C 140.406 305.253,140.404 304.785,140.355 304.528 C 140.306 304.272,140.266 304.531,140.268 305.104 M55.469 305.313 C 55.472 305.771,55.514 305.934,55.564 305.675 C 55.614 305.416,55.612 305.041,55.560 304.841 C 55.508 304.642,55.467 304.854,55.469 305.313 M197.708 307.083 L 184.063 307.192 197.644 307.242 C 206.528 307.274,211.270 307.220,211.354 307.083 C 211.425 306.969,211.454 306.897,211.419 306.925 C 211.383 306.952,205.214 307.024,197.708 307.083 M78.538 317.562 L 78.638 318.646 78.707 317.732 C 78.746 317.230,78.700 316.742,78.607 316.648 C 78.514 316.555,78.483 316.966,78.538 317.562 M78.606 319.896 C 78.607 320.583,78.646 320.839,78.693 320.465 C 78.739 320.091,78.738 319.528,78.691 319.215 C 78.643 318.902,78.605 319.208,78.606 319.896 M78.594 321.979 C 78.597 322.438,78.639 322.600,78.689 322.341 C 78.739 322.082,78.737 321.707,78.685 321.508 C 78.633 321.309,78.592 321.521,78.594 321.979 M160.053 323.438 C 160.055 323.896,160.098 324.059,160.147 323.800 C 160.197 323.541,160.195 323.166,160.143 322.966 C 160.091 322.767,160.050 322.979,160.053 323.438 M106.510 324.941 C 106.826 324.989,107.341 324.989,107.656 324.941 C 107.971 324.893,107.714 324.854,107.083 324.854 C 106.453 324.854,106.195 324.893,106.510 324.941 M146.409 324.939 C 146.668 324.989,147.043 324.987,147.242 324.935 C 147.441 324.883,147.229 324.842,146.771 324.844 C 146.313 324.847,146.150 324.889,146.409 324.939 M195.360 324.942 C 195.730 324.988,196.386 324.989,196.818 324.944 C 197.251 324.899,196.948 324.861,196.146 324.860 C 195.344 324.859,194.990 324.896,195.360 324.942 M259.428 335.104 C 259.430 335.563,259.473 335.725,259.522 335.466 C 259.572 335.207,259.570 334.832,259.518 334.633 C 259.466 334.434,259.425 334.646,259.428 335.104 M259.435 336.979 C 259.436 337.552,259.477 337.762,259.524 337.445 C 259.572 337.128,259.571 336.660,259.522 336.403 C 259.472 336.147,259.433 336.406,259.435 336.979 M259.432 338.958 C 259.432 339.474,259.472 339.685,259.522 339.427 C 259.572 339.169,259.572 338.747,259.522 338.490 C 259.472 338.232,259.432 338.443,259.432 338.958 " stroke="none" fill="#7ca4d4" fill-rule="evenodd"></path><path id="path3" d="M106.510 156.810 C 106.711 156.863,107.039 156.863,107.240 156.810 C 107.440 156.758,107.276 156.715,106.875 156.715 C 106.474 156.715,106.310 156.758,106.510 156.810 M108.492 156.814 C 108.751 156.864,109.126 156.862,109.325 156.810 C 109.525 156.758,109.313 156.717,108.854 156.719 C 108.396 156.722,108.233 156.764,108.492 156.814 M117.562 172.500 C 117.562 173.130,117.601 173.388,117.649 173.073 C 117.697 172.758,117.697 172.242,117.649 171.927 C 117.601 171.612,117.562 171.870,117.562 172.500 M98.637 214.375 C 98.637 219.016,98.664 220.914,98.698 218.594 C 98.731 216.273,98.731 212.477,98.698 210.156 C 98.664 207.836,98.637 209.734,98.637 214.375 M110.575 220.981 C 110.834 221.031,111.209 221.029,111.409 220.976 C 111.608 220.924,111.396 220.884,110.938 220.886 C 110.479 220.888,110.316 220.931,110.575 220.981 M197.240 220.980 C 197.497 221.030,197.919 221.030,198.177 220.980 C 198.435 220.931,198.224 220.890,197.708 220.890 C 197.193 220.890,196.982 220.931,197.240 220.980 M155.308 238.021 C 155.308 247.073,155.333 250.746,155.365 246.182 C 155.396 241.619,155.396 234.213,155.364 229.724 C 155.333 225.235,155.308 228.969,155.308 238.021 M184.840 225.208 C 184.840 225.609,184.883 225.773,184.935 225.573 C 184.988 225.372,184.988 225.044,184.935 224.844 C 184.883 224.643,184.840 224.807,184.840 225.208 M139.961 227.239 C 141.600 227.274,144.225 227.274,145.794 227.239 C 147.362 227.204,146.021 227.175,142.813 227.175 C 139.604 227.175,138.321 227.204,139.961 227.239 M122.965 233.542 C 122.965 233.943,123.008 234.107,123.060 233.906 C 123.113 233.706,123.113 233.378,123.060 233.177 C 123.008 232.977,122.965 233.141,122.965 233.542 M209.890 247.083 C 209.890 254.130,209.916 257.013,209.948 253.490 C 209.980 249.966,209.980 244.201,209.948 240.677 C 209.916 237.154,209.890 240.036,209.890 247.083 M98.640 247.188 C 98.640 254.177,98.666 257.006,98.698 253.475 C 98.730 249.943,98.730 244.224,98.698 240.766 C 98.666 237.308,98.640 240.198,98.640 247.188 M67.240 285.361 C 67.727 285.405,68.523 285.405,69.010 285.361 C 69.497 285.317,69.099 285.281,68.125 285.281 C 67.151 285.281,66.753 285.317,67.240 285.361 M151.193 290.984 C 151.563 291.030,152.219 291.030,152.652 290.985 C 153.084 290.940,152.781 290.903,151.979 290.902 C 151.177 290.901,150.823 290.938,151.193 290.984 M189.100 302.031 C 191.871 302.064,196.465 302.064,199.308 302.031 C 202.152 301.998,199.885 301.972,194.271 301.971 C 188.656 301.971,186.329 301.998,189.100 302.031 M48.406 305.417 C 48.406 306.391,48.442 306.789,48.486 306.302 C 48.530 305.815,48.530 305.018,48.486 304.531 C 48.442 304.044,48.406 304.443,48.406 305.417 M89.231 305.313 C 89.232 306.000,89.271 306.256,89.318 305.882 C 89.364 305.507,89.363 304.945,89.316 304.632 C 89.268 304.319,89.230 304.625,89.231 305.313 M196.510 319.316 C 196.826 319.364,197.341 319.364,197.656 319.316 C 197.971 319.268,197.714 319.229,197.083 319.229 C 196.453 319.229,196.195 319.268,196.510 319.316 M160.057 321.875 C 160.057 322.391,160.097 322.602,160.147 322.344 C 160.197 322.086,160.197 321.664,160.147 321.406 C 160.097 321.148,160.057 321.359,160.057 321.875 M66.818 324.734 C 67.188 324.780,67.844 324.780,68.277 324.735 C 68.709 324.690,68.406 324.653,67.604 324.652 C 66.802 324.651,66.448 324.688,66.818 324.734 M215.915 337.083 C 215.915 338.630,215.948 339.263,215.988 338.490 C 216.028 337.716,216.028 336.451,215.988 335.677 C 215.948 334.904,215.915 335.536,215.915 337.083 " stroke="none" fill="#acc4e4" fill-rule="evenodd"></path><path id="path4" d="M100.822 164.948 L 100.104 165.729 100.885 165.011 C 101.613 164.343,101.762 164.167,101.603 164.167 C 101.569 164.167,101.217 164.518,100.822 164.948 M253.744 223.906 L 252.396 225.313 253.802 223.964 C 255.108 222.712,255.304 222.500,255.150 222.500 C 255.118 222.500,254.485 223.133,253.744 223.906 M246.250 231.146 C 245.396 232.005,244.745 232.708,244.802 232.708 C 244.859 232.708,245.605 232.005,246.458 231.146 C 247.312 230.286,247.964 229.583,247.906 229.583 C 247.849 229.583,247.104 230.286,246.250 231.146 M239.160 238.073 L 238.021 239.271 239.219 238.132 C 240.332 237.074,240.512 236.875,240.357 236.875 C 240.325 236.875,239.786 237.414,239.160 238.073 M120.417 289.688 C 120.805 290.089,121.170 290.417,121.228 290.417 C 121.285 290.417,121.014 290.089,120.625 289.688 C 120.236 289.286,119.871 288.958,119.814 288.958 C 119.757 288.958,120.028 289.286,120.417 289.688 M155.208 315.104 C 154.702 315.620,154.335 316.042,154.392 316.042 C 154.450 316.042,154.911 315.620,155.417 315.104 C 155.923 314.589,156.290 314.167,156.233 314.167 C 156.175 314.167,155.714 314.589,155.208 315.104 M123.270 315.523 C 123.079 315.923,122.966 316.250,123.019 316.250 C 123.161 316.250,123.794 314.974,123.699 314.879 C 123.653 314.834,123.460 315.124,123.270 315.523 M53.229 319.792 C 53.677 320.250,54.090 320.625,54.147 320.625 C 54.204 320.625,53.885 320.250,53.438 319.792 C 52.990 319.333,52.577 318.958,52.520 318.958 C 52.462 318.958,52.782 319.333,53.229 319.792 M137.500 320.899 C 137.500 320.934,137.805 321.239,138.177 321.576 L 138.854 322.188 138.242 321.510 C 137.672 320.879,137.500 320.738,137.500 320.899 " stroke="none" fill="#6494cc" fill-rule="evenodd"></path></g></svg>